PathFileType	4	(X/Y/Z)	C:\Users\WrightLab\Desktop\Jo\P1.2Trial14.trc
DataRate	CameraRate	NumFrames	NumMarkers	Units	OrigDataRate	OrigDataStartFrame	OrigNumFrames
100.00	100.00	       50	19	mm	100.00	118	       938
Frame#	Time	Headset_Front			Headset_Back			Headset_Left			Headset_Right			Left_Shoulder			Right_Shoulder			Sternum			C7			Left Elbow			Right Elbow			Left Wrist			Right Wrist			Left ASIS			Right ASIS			S2			Left Knee			Right Knee			Left Ankle			Right Ankle			
		X1	Y1	Z1	X2	Y2	Z2	X3	Y3	Z3	X4	Y4	Z4	X5	Y5	Z5	X6	Y6	Z6	X7	Y7	Z7	X8	Y8	Z8	X9	Y9	Z9	X10	Y10	Z10	X11	Y11	Z11	X12	Y12	Z12	X13	Y13	Z13	X14	Y14	Z14	X15	Y15	Z15	X16	Y16	Z16	X17	Y17	Z17	X18	Y18	Z18	X19	Y19	Z19	

118	1.170																												-257.93994	1042.99341	1707.61426				-294.36389	884.62347	1488.15540													-402.27493	486.57196	1716.24658							
119	1.180																												-256.81290	1040.91504	1701.34668				-293.88870	882.59485	1483.45129													-403.09735	484.98135	1709.34863							
120	1.190																												-255.79353	1038.71216	1695.94922				-293.96722	879.94604	1477.19836													-403.41040	481.24103	1706.39465							
121	1.200																												-254.52423	1036.84656	1690.19470				-293.61453	877.53381	1471.00171													-403.23157	479.98157	1698.87341							
122	1.210																												-253.57387	1035.24207	1683.87439				-293.37869	874.45111	1465.89331													-403.98883	477.90506	1692.38403							
123	1.220																												-252.64471	1033.32117	1676.77783				-293.03845	871.67438	1461.20630													-403.41949	474.39685	1688.70862							
124	1.230																												-251.46199	1031.77051	1671.50769				-293.04523	869.07373	1455.63342													-403.60254	473.13263	1681.90417							
125	1.240																												-250.30165	1030.50513	1665.21436				-292.64810	866.87836	1450.45801													-404.40332	471.81570	1676.66833							
126	1.250																												-249.43256	1029.62512	1658.77698				-291.96103	864.56177	1445.90259													-404.20490	471.90314	1674.26379							
127	1.260																												-247.96181	1028.62891	1654.97644				-291.63834	861.81226	1441.52319													-404.05634	473.14511	1667.97437							
128	1.270																												-247.05836	1027.53406	1648.54797				-291.27649	859.45734	1437.75720													-403.32196	473.75232	1663.00220							
129	1.280																												-246.08540	1027.44690	1643.74402				-291.40781	857.99884	1432.95044													-403.87695	474.94305	1657.26880							
130	1.290																												-245.20746	1027.35425	1639.07031				-291.07910	856.10638	1429.75891													-402.97546	474.83044	1655.11365							
131	1.300																												-244.21123	1026.78845	1632.37158				-290.80087	854.40375	1425.87012													-403.15646	475.45322	1648.49854							
132	1.310																												-243.31767	1026.05908	1628.45935				-291.24789	852.94385	1421.88611													-401.63730	475.35397	1643.76270							
133	1.320																												-242.68300	1025.76294	1621.13721				-291.26636	850.33276	1417.40222													-401.58615	475.55167	1639.37915							
134	1.330																												-241.83987	1025.41345	1617.44971				-291.29724	849.57001	1414.54663													-401.74966	474.68564	1636.69824							
135	1.340																												-240.78854	1024.61389	1612.43066				-291.62906	848.61365	1409.95105													-400.66074	473.47803	1633.56580							
136	1.350																												-239.73582	1024.32166	1606.40039				-292.44720	847.14111	1405.72363													-402.25867	473.37964	1630.40332							
137	1.360																												-238.99559	1024.54553	1601.31897				-293.24146	846.11743	1401.79504													-400.65060	472.86148	1627.57971							
138	1.370																												-238.14505	1023.47260	1596.10168				-293.45724	844.65161	1398.31396													-400.47485	470.99042	1627.68481							
139	1.380																												-237.54091	1022.92108	1591.95654				-293.90005	843.74146	1394.06555													-399.44214	470.42963	1624.61511							
140	1.390																												-237.08983	1022.31964	1587.62952				-293.59503	842.72119	1390.28992													-398.72308	470.25467	1623.83093							
141	1.400																												-237.07257	1021.33868	1582.33801				-293.84427	842.24591	1386.21216													-398.00616	469.66486	1622.66663							
142	1.410																												-236.16760	1021.18268	1578.60510				-293.79642	840.76190	1382.38086													-396.79361	467.58621	1620.67749							
143	1.420																												-235.48405	1020.36310	1574.75830				-293.76834	840.34607	1378.17224													-396.23581	467.53088	1620.02625							
144	1.430																												-235.06386	1019.87006	1570.03650				-293.78220	839.46375	1374.48022													-395.79041	467.30762	1619.38684							
145	1.440																												-234.83368	1019.41754	1566.75220				-294.12384	838.40576	1370.69690													-394.93344	467.23871	1618.04016							
146	1.450																												-234.21957	1019.59796	1562.57910				-294.10977	837.53906	1367.84302													-394.41873	467.08255	1617.18274							
147	1.460																												-234.34386	1018.56720	1558.24194				-294.66739	836.42157	1363.73340													-394.33871	466.07993	1616.00830							
148	1.470																												-234.05499	1018.46631	1554.16614				-294.43335	835.57910	1360.22327													-392.86349	465.49316	1614.21021							
149	1.480																												-233.91826	1018.01965	1550.04907				-294.64587	834.73914	1356.66711													-392.01529	464.40112	1614.06152							
150	1.490																												-233.96616	1017.76172	1544.89380				-294.65891	834.13580	1353.40125													-391.71173	464.52646	1611.67090							
151	1.500																												-233.73369	1017.69574	1540.85779				-294.56979	833.64313	1350.43579													-391.06406	464.23489	1609.21179							
152	1.510																												-233.34523	1017.81738	1537.30725				-295.00531	832.13550	1346.50012													-390.98517	463.42163	1607.06921							
153	1.520																												-233.48116	1017.40094	1533.40088				-295.08575	831.22211	1343.71460													-389.96115	463.40497	1603.68323							
154	1.530																												-233.67546	1016.69806	1529.30432				-296.02930	830.80249	1340.95728													-389.40979	463.30704	1603.06848							
155	1.540																												-233.42775	1016.64026	1525.71362				-295.68137	829.29675	1338.17383													-389.15070	463.01599	1600.86633							
156	1.550																												-234.12436	1016.51099	1521.31934				-296.13232	828.88818	1334.81458													-389.58771	462.84592	1598.67468							
157	1.560																												-233.91876	1016.27856	1518.60693				-296.26028	828.50104	1332.08191													-390.25092	463.12283	1597.14270							
158	1.570																												-233.62914	1015.48987	1515.19873				-295.84128	827.69635	1329.58911													-390.36215	461.35321	1596.28601							
159	1.580																												-233.96326	1015.32538	1511.74854				-296.50311	826.91876	1326.19214													-389.90552	461.09628	1594.66089							
160	1.590																												-233.65858	1015.07971	1509.16040				-296.31647	826.93945	1323.47424													-389.80219	460.90482	1594.00208							
161	1.600																												-234.07880	1015.18488	1506.20435				-296.55405	826.66699	1321.73694													-390.15039	460.64017	1593.33008							
162	1.610																												-234.19756	1014.01123	1504.21924				-297.52002	825.97388	1318.43372													-391.74942	461.67233	1589.96448							
163	1.620																												-234.49156	1014.12067	1501.14526				-297.59906	825.16278	1316.38074													-391.82599	461.45374	1589.97327							
164	1.630																												-234.28519	1013.93091	1500.03406				-298.24167	824.97992	1313.59497													-391.45538	461.32132	1588.44275							
165	1.640																												-234.64035	1013.29291	1496.83435				-298.47171	824.87585	1311.83130													-391.58041	460.69867	1588.01526							
166	1.650																												-234.41946	1012.76324	1494.92761				-298.47870	824.48218	1310.18311													-391.30069	460.47797	1585.87158							
167	1.660																												-234.19205	1012.51611	1492.55603				-299.13132	823.77362	1307.88806													-390.69482	458.97037	1586.78052							
